<mxfile host="Electron" modified="2023-08-28T02:57:08.356Z" agent="Mozilla/5.0 (Windows NT 10.0; Win64; x64) AppleWebKit/537.36 (KHTML, like Gecko) draw.io/21.6.5 Chrome/114.0.5735.243 Electron/25.3.1 Safari/537.36" etag="QC7HhYSrWUOERF212SH3" version="21.6.5" type="device">
  <diagram name="ページ1" id="5GmA5azT59qMRVNA7XrL">
    <mxGraphModel dx="2603" dy="844" grid="1" gridSize="10" guides="1" tooltips="1" connect="1" arrows="1" fold="1" page="1" pageScale="1" pageWidth="1169" pageHeight="827" math="0" shadow="0">
      <root>
        <mxCell id="0" />
        <mxCell id="1" parent="0" />
        <mxCell id="R3ex-nuZuo4BqBKcZroz-3" value="" style="rounded=0;whiteSpace=wrap;html=1;strokeWidth=0;" parent="1" vertex="1">
          <mxGeometry x="-200" y="120" width="1240" height="600" as="geometry" />
        </mxCell>
        <mxCell id="8uGnQqRoo8XHkAc7qmPf-15" value="適用&lt;br style=&quot;font-size: 18px;&quot;&gt;keymap&lt;br style=&quot;font-size: 18px;&quot;&gt;なし" style="rounded=0;whiteSpace=wrap;html=1;strokeWidth=4;fontSize=18;fillColor=#f5f5f5;fontColor=#333333;strokeColor=#999999;" parent="1" vertex="1">
          <mxGeometry x="-160" y="380" width="160" height="240" as="geometry" />
        </mxCell>
        <mxCell id="8uGnQqRoo8XHkAc7qmPf-24" value="適用&lt;br style=&quot;font-size: 18px;&quot;&gt;keymap&lt;br style=&quot;font-size: 18px;&quot;&gt;なし" style="rounded=0;whiteSpace=wrap;html=1;strokeWidth=4;fontSize=18;fillColor=#f5f5f5;fontColor=#333333;strokeColor=#999999;" parent="1" vertex="1">
          <mxGeometry x="880" y="440" width="120" height="180" as="geometry" />
        </mxCell>
        <mxCell id="8uGnQqRoo8XHkAc7qmPf-10" value="&lt;font style=&quot;font-size: 18px;&quot;&gt;keymap_global&lt;br&gt;&lt;/font&gt;" style="rounded=0;whiteSpace=wrap;html=1;strokeWidth=4;align=center;" parent="1" vertex="1">
          <mxGeometry y="380" width="1000" height="60" as="geometry" />
        </mxCell>
        <mxCell id="8uGnQqRoo8XHkAc7qmPf-1" value="&lt;font style=&quot;font-size: 18px;&quot;&gt;keymap_base&lt;/font&gt;" style="rounded=0;whiteSpace=wrap;html=1;strokeWidth=4;" parent="1" vertex="1">
          <mxGeometry y="560" width="880" height="60" as="geometry" />
        </mxCell>
        <mxCell id="8uGnQqRoo8XHkAc7qmPf-2" value="&lt;font style=&quot;font-size: 18px;&quot;&gt;　　　　　　　　　keymap_emacs&lt;/font&gt;" style="rounded=0;whiteSpace=wrap;html=1;strokeWidth=4;fillColor=#ffcccc;strokeColor=#36393d;" parent="1" vertex="1">
          <mxGeometry y="440" width="320" height="120" as="geometry" />
        </mxCell>
        <mxCell id="8uGnQqRoo8XHkAc7qmPf-4" value="&lt;font style=&quot;font-size: 18px;&quot;&gt;keymap_ime&lt;/font&gt;" style="rounded=0;whiteSpace=wrap;html=1;strokeWidth=4;fillColor=#cce5ff;strokeColor=#36393d;" parent="1" vertex="1">
          <mxGeometry x="320" y="440" width="160" height="120" as="geometry" />
        </mxCell>
        <mxCell id="8uGnQqRoo8XHkAc7qmPf-6" value="&lt;font style=&quot;font-size: 18px;&quot;&gt;keymap_ei&lt;/font&gt;" style="rounded=0;whiteSpace=wrap;html=1;strokeWidth=4;fillColor=#cdeb8b;strokeColor=#36393d;" parent="1" vertex="1">
          <mxGeometry x="480" y="440" width="160" height="120" as="geometry" />
        </mxCell>
        <mxCell id="8uGnQqRoo8XHkAc7qmPf-7" value="&lt;font style=&quot;font-size: 18px;&quot;&gt;keymap_tsw&lt;/font&gt;" style="rounded=0;whiteSpace=wrap;html=1;strokeWidth=4;" parent="1" vertex="1">
          <mxGeometry x="640" y="440" width="120" height="120" as="geometry" />
        </mxCell>
        <mxCell id="8uGnQqRoo8XHkAc7qmPf-8" value="&lt;font style=&quot;font-size: 18px;&quot;&gt;keymap_lw&lt;/font&gt;" style="rounded=0;whiteSpace=wrap;html=1;strokeWidth=4;" parent="1" vertex="1">
          <mxGeometry x="760" y="440" width="120" height="120" as="geometry" />
        </mxCell>
        <mxCell id="8uGnQqRoo8XHkAc7qmPf-9" value="&lt;font style=&quot;font-size: 18px;&quot;&gt;keymap_vscode&lt;/font&gt;" style="rounded=0;whiteSpace=wrap;html=1;strokeWidth=4;fillColor=#ffcc99;strokeColor=#36393d;" parent="1" vertex="1">
          <mxGeometry y="440" width="160" height="60" as="geometry" />
        </mxCell>
        <mxCell id="8uGnQqRoo8XHkAc7qmPf-16" value="リスト&lt;br&gt;ウィンドウ&lt;br&gt;表示時&lt;br&gt;　" style="html=1;shadow=0;dashed=0;align=center;verticalAlign=middle;shape=mxgraph.arrows2.arrow;dy=0.33;dx=38;direction=south;notch=0;strokeWidth=1;" parent="1" vertex="1">
          <mxGeometry x="770" y="240" width="100" height="120" as="geometry" />
        </mxCell>
        <mxCell id="8uGnQqRoo8XHkAc7qmPf-17" value="タスク&lt;br&gt;切り替え&lt;br&gt;画面&lt;br&gt;表示時&lt;br&gt;　" style="html=1;shadow=0;dashed=0;align=center;verticalAlign=middle;shape=mxgraph.arrows2.arrow;dy=0.33;dx=38;direction=south;notch=0;strokeWidth=1;" parent="1" vertex="1">
          <mxGeometry x="650" y="240" width="100" height="120" as="geometry" />
        </mxCell>
        <mxCell id="8uGnQqRoo8XHkAc7qmPf-18" value="Emacs&lt;br&gt;日本語入力&lt;br&gt;モード&lt;br&gt;利用時&lt;br&gt;　" style="html=1;shadow=0;dashed=0;align=center;verticalAlign=middle;shape=mxgraph.arrows2.arrow;dy=0.33;dx=38;direction=south;notch=0;strokeWidth=1;" parent="1" vertex="1">
          <mxGeometry x="490" y="240" width="140" height="120" as="geometry" />
        </mxCell>
        <mxCell id="8uGnQqRoo8XHkAc7qmPf-19" value="IME&lt;br&gt;の切り替え&lt;br&gt;のみしたい&lt;br&gt;アプリ&lt;br&gt;利用時&lt;br&gt;　" style="html=1;shadow=0;dashed=0;align=center;verticalAlign=middle;shape=mxgraph.arrows2.arrow;dy=0.33;dx=38;direction=south;notch=0;strokeWidth=1;" parent="1" vertex="1">
          <mxGeometry x="330" y="240" width="140" height="120" as="geometry" />
        </mxCell>
        <mxCell id="8uGnQqRoo8XHkAc7qmPf-20" value="VSCode&lt;br&gt;利用時&lt;br&gt;　" style="html=1;shadow=0;dashed=0;align=center;verticalAlign=middle;shape=mxgraph.arrows2.arrow;dy=0.33;dx=38;direction=south;notch=0;strokeWidth=1;" parent="1" vertex="1">
          <mxGeometry x="10" y="240" width="140" height="120" as="geometry" />
        </mxCell>
        <mxCell id="8uGnQqRoo8XHkAc7qmPf-21" value="Emacs&lt;br&gt;キーバインド&lt;br&gt;を適用する&lt;br&gt;アプリ&lt;br&gt;利用時&lt;br&gt;　" style="html=1;shadow=0;dashed=0;align=center;verticalAlign=middle;shape=mxgraph.arrows2.arrow;dy=0.33;dx=38;direction=south;notch=0;strokeWidth=1;" parent="1" vertex="1">
          <mxGeometry x="170" y="240" width="140" height="120" as="geometry" />
        </mxCell>
        <mxCell id="8uGnQqRoo8XHkAc7qmPf-22" value="fc.game&lt;br&gt;_app_list&lt;br&gt;指定&lt;br&gt;アプリ&lt;br&gt;利用時&lt;br&gt;　" style="html=1;shadow=0;dashed=0;align=center;verticalAlign=middle;shape=mxgraph.arrows2.arrow;dy=0.33;dx=38;direction=south;notch=0;strokeWidth=1;" parent="1" vertex="1">
          <mxGeometry x="890" y="240" width="100" height="120" as="geometry" />
        </mxCell>
        <mxCell id="8uGnQqRoo8XHkAc7qmPf-23" value="透過指定&lt;br&gt;アプリ&lt;br&gt;利用時&lt;br&gt;　" style="html=1;shadow=0;dashed=0;align=center;verticalAlign=middle;shape=mxgraph.arrows2.arrow;dy=0.33;dx=38;direction=south;notch=0;strokeWidth=1;" parent="1" vertex="1">
          <mxGeometry x="-150" y="240" width="140" height="120" as="geometry" />
        </mxCell>
        <mxCell id="9zCoiUO8UtqV8FVcG8kC-1" value="&lt;font style=&quot;font-size: 18px;&quot;&gt;PC&lt;/font&gt;" style="rounded=0;whiteSpace=wrap;html=1;strokeWidth=4;fillColor=#999999;" parent="1" vertex="1">
          <mxGeometry x="-160" y="620" width="1160" height="60" as="geometry" />
        </mxCell>
        <mxCell id="a5IqTfCqZznrqO2_RQo1-2" value="" style="shape=umlActor;verticalLabelPosition=bottom;verticalAlign=top;html=1;strokeWidth=2;" vertex="1" parent="1">
          <mxGeometry x="405" y="151" width="30" height="60" as="geometry" />
        </mxCell>
      </root>
    </mxGraphModel>
  </diagram>
</mxfile>
